<mxfile host="65bd71144e">
    <diagram id="wgvosNzNBytIpjZ4Yd2f" name="Page-1">
        <mxGraphModel dx="1570" dy="797" grid="1" gridSize="10" guides="1" tooltips="1" connect="1" arrows="1" fold="1" page="1" pageScale="1" pageWidth="1100" pageHeight="850" background="none" math="0" shadow="0">
            <root>
                <mxCell id="0"/>
                <mxCell id="1" parent="0"/>
                <mxCell id="3" value="Importando Módulo com repositório GIT" style="text;html=1;align=left;verticalAlign=middle;resizable=0;points=[];autosize=1;strokeColor=none;fillColor=none;sketch=1;curveFitting=1;jiggle=2;rounded=1;fontSize=25;horizontal=1;fontStyle=1" vertex="1" parent="1">
                    <mxGeometry x="20" y="20" width="500" height="40" as="geometry"/>
                </mxCell>
                <mxCell id="5" value="O desenvolvimento com módulos permite dar manutenção em partes do sistema&lt;br&gt;mantidas de forma isolada do resto do sistema geral. Permitindo carregar os&amp;nbsp;&lt;br&gt;módulos dependendo da instalação da plataforma, flexibilizando decisões de&amp;nbsp;&lt;br&gt;negócio na camada do códifo-fonte." style="text;html=1;align=left;verticalAlign=middle;resizable=0;points=[];autosize=1;strokeColor=none;fillColor=none;sketch=1;curveFitting=1;jiggle=2;rounded=1;" vertex="1" parent="1">
                    <mxGeometry x="20" y="75" width="450" height="70" as="geometry"/>
                </mxCell>
            </root>
        </mxGraphModel>
    </diagram>
</mxfile>